HIERARCHY
ROOT Hips
{
	OFFSET -0.179506 -22.333345 2.821913
	CHANNELS 6 Xposition Yposition Zposition Zrotation Yrotation Xrotation 
	JOINT LeftUpLeg
	{
		OFFSET 6.951974 -9.140623 -0.681533
		CHANNELS 3 Zrotation Yrotation Xrotation
		JOINT LeftLeg
		{
			OFFSET 3.427654 -37.519855 -0.449580
			CHANNELS 3 Zrotation Yrotation Xrotation
			JOINT LeftFoot
			{
				OFFSET -1.359570 -39.796059 -4.369333
				CHANNELS 3 Zrotation Yrotation Xrotation
				JOINT LeftToe
				{
					OFFSET 2.635814 -5.579078 11.928840
					CHANNELS 3 Zrotation Yrotation Xrotation
					End Site
					{
						OFFSET 0.000000 0.000000 0.000000
					}
				}
			}
		}
	}
	JOINT RightUpLeg
	{
		OFFSET -6.767048 -9.052170 -0.431982
		CHANNELS 3 Zrotation Yrotation Xrotation
		JOINT RightLeg
		{
			OFFSET -3.829005 -38.256897 -0.885003
			CHANNELS 3 Zrotation Yrotation Xrotation
			JOINT RightFoot
			{
				OFFSET 1.577377 -39.841461 -4.231180
				CHANNELS 3 Zrotation Yrotation Xrotation
				JOINT RightToe
				{
					OFFSET -2.537174 -4.814398 12.334795
					CHANNELS 3 Zrotation Yrotation Xrotation
					End Site
					{
						OFFSET 0.000000 0.000000 0.000000
					}
				}
			}
		}
	}
	JOINT Spine
	{
		OFFSET -0.253288 10.896323 -2.669631
		CHANNELS 3 Zrotation Yrotation Xrotation
		JOINT Spine1
		{
			OFFSET 0.548704 13.518043 0.109247
			CHANNELS 3 Zrotation Yrotation Xrotation
			JOINT Spine2
			{
				OFFSET 0.145701 5.292222 2.542457
				CHANNELS 3 Zrotation Yrotation Xrotation
				JOINT Neck
				{
					OFFSET -0.277840 21.387037 -4.285703
					CHANNELS 3 Zrotation Yrotation Xrotation
					JOINT Head
					{
						OFFSET 0.515184 6.496960 5.134897
						CHANNELS 3 Zrotation Yrotation Xrotation
						End Site
						{
							OFFSET 0.000000 0.000000 0.000000
						}
					}
				}
				JOINT LeftShoulder
				{
					OFFSET 7.884473 12.174932 -3.408961
					CHANNELS 3 Zrotation Yrotation Xrotation
					JOINT LeftArm
					{
						OFFSET 9.097692 3.046888 -0.886815
						CHANNELS 3 Zrotation Yrotation Xrotation
						JOINT LeftForeArm
						{
							OFFSET 25.961220 -1.277207 -2.745643
							CHANNELS 3 Zrotation Yrotation Xrotation
							JOINT LeftHand
							{
								OFFSET 24.923361 0.898606 -0.117091
								CHANNELS 3 Zrotation Yrotation Xrotation
								End Site
								{
									OFFSET 0.000000 0.000000 0.000000
								}
							}
						}
					}
				}
				JOINT RightShoulder
				{
					OFFSET -8.175920 11.883285 -3.861528
					CHANNELS 3 Zrotation Yrotation Xrotation
					JOINT RightArm
					{
						OFFSET -9.601238 3.255117 -0.914307
						CHANNELS 3 Zrotation Yrotation Xrotation
						JOINT RightForeArm
						{
							OFFSET -25.374195 -1.332924 -2.140099
							CHANNELS 3 Zrotation Yrotation Xrotation
							JOINT RightHand
							{
								OFFSET -25.529810 0.777228 -0.555919
								CHANNELS 3 Zrotation Yrotation Xrotation
								End Site
								{
									OFFSET 0.000000 0.000000 0.000000
								}
							}
						}
					}
				}
			}
		}
	}
}
MOTION
Frames: 13
Frame Time: 0.033333
5.049464 10.357782 91.183266 -130.936860 2.253248 84.489790 6.499308 4.482519 -4.906664 -5.868460 1.014404 24.515994 3.539690 14.056491 -27.238633 nan nan nan -10.765124 -10.606206 -11.719452 1.984492 -8.816741 12.936869 4.076072 -8.816836 -2.512342 nan nan nan -4.691513 2.548164 1.297696 6.637315 -4.753532 14.640712 0.024284 0.906089 -7.461695 3.211639 -22.339808 11.010448 1.945798 -14.330480 15.849775 -18.812487 -7.023582 4.737437 -54.540724 -33.517722 25.924781 -163.990791 -69.253358 -148.710782 20.531456 -16.613234 21.838365 19.508977 6.868605 -1.124496 28.815823 25.612407 -7.522838 -74.045471 49.524023 -47.850283 -25.446082 10.859209 14.731813 
5.029901 10.282396 91.153183 -130.869056 2.276096 84.420232 6.459942 4.407385 -4.980051 -5.858392 0.969013 24.667937 3.596217 14.178857 -27.234360 nan nan nan -10.780212 -10.566393 -11.490203 1.999442 -8.622232 12.636035 4.112588 -8.931998 -2.470299 nan nan nan -4.608808 2.513148 1.325658 6.577440 -4.822427 14.775575 -0.023315 0.883077 -7.440818 3.302883 -22.626957 10.687254 1.698680 -14.421212 15.948503 -18.667341 -6.966411 4.653101 -54.662968 -33.656485 25.989166 -164.385820 -69.129157 -148.628484 21.233455 -16.518072 20.829521 19.301446 6.777615 -1.207459 29.046758 25.775960 -7.460308 -74.119528 49.280556 -48.594974 -26.145495 10.669815 13.607896 
4.982392 10.262097 91.188873 -130.971988 2.171764 84.130075 6.326886 3.966818 -4.439250 -5.203241 2.391800 24.418803 3.752102 12.885637 -27.243341 nan nan nan -11.100566 -10.048880 -10.802564 1.995054 -9.636643 12.070986 3.743905 -8.036886 -2.257112 nan nan nan -4.903865 3.068219 1.570803 6.655296 -4.836180 14.843690 0.282103 0.703593 -7.730336 3.144415 -22.067517 11.130491 2.394109 -15.134668 15.439432 -18.115397 -6.749657 4.733649 -57.342324 -33.380351 27.716849 176.931907 -65.892313 -144.018237 1.334499 -19.284146 -1.134950 18.509398 6.950257 -2.209294 30.401896 24.628078 -5.645213 -77.405846 48.038386 -58.017096 -9.006743 7.437692 2.849083 
4.970437 10.196353 91.188255 -131.073682 2.146121 84.140074 6.269705 3.956856 -4.463253 -5.200984 2.550199 24.471569 3.714182 12.852087 -27.241877 nan nan nan -11.147312 -9.998380 -10.822194 1.994442 -9.630686 12.014016 3.677375 -7.953344 -2.301190 nan nan nan -4.899535 3.124503 1.566417 6.620799 -4.806655 14.801477 0.266903 0.689459 -7.696739 3.179311 -21.933097 11.061577 2.508511 -15.136319 15.448772 -18.039142 -6.685142 4.610858 -57.676452 -33.364147 27.953284 176.187487 -65.796498 -143.787708 0.241792 -19.452350 -2.310444 18.468453 6.866996 -2.371189 30.635461 24.523498 -5.360853 -77.722576 47.959537 -58.814660 -7.713415 7.215487 1.591465 
4.956425 10.137832 91.174934 -131.153570 2.184403 84.143983 6.288128 4.025189 -4.523610 -5.207743 2.615894 24.577560 3.708529 12.864741 -27.298740 nan nan nan -11.143872 -10.027395 -10.839049 2.021804 -9.640130 12.004686 3.697265 -7.875213 -2.315296 nan nan nan -4.879634 3.088761 1.648141 6.636232 -4.780219 14.562558 0.285069 0.709855 -7.499269 3.194972 -21.766835 10.976114 2.568086 -15.126604 15.156398 -18.034999 -6.575864 4.486885 -57.758231 -33.395253 27.991216 176.462408 -65.883483 -143.852714 0.428041 -19.660605 -1.939940 18.495871 6.750556 -2.422333 30.699861 24.590947 -5.299417 -77.512117 48.261085 -57.959424 -7.938694 7.288837 2.573446 
4.938066 10.091936 91.155205 -131.282864 2.317277 83.865437 6.475869 4.154363 -4.218137 -5.184752 2.716094 24.610126 3.969292 12.660722 -27.241673 nan nan nan -11.083547 -9.916370 -10.396059 2.148433 -9.635753 11.729214 3.429464 -7.858513 -2.195783 nan nan nan -5.241942 3.522996 1.771036 7.033657 -4.674201 14.287034 0.684359 0.792980 -6.825010 3.268191 -21.905020 10.524422 2.720786 -15.268963 14.494232 -17.699750 -7.090986 4.518746 -60.032717 -33.421334 28.660613 170.679276 -65.375103 -142.388277 -6.003634 -21.268716 -10.540750 18.064040 6.631510 -3.365554 30.806447 23.981474 -5.020765 -77.710464 48.351117 -58.657584 -2.252873 5.681755 0.851749 
4.919373 10.022373 91.135330 -131.372630 2.329958 83.832052 6.446616 4.177495 -4.195171 -5.164671 2.783644 24.630035 3.995204 12.628884 -27.189832 nan nan nan -11.089893 -9.957946 -10.328645 2.172273 -9.600343 11.579658 3.490852 -7.826532 -2.100552 nan nan nan -5.189030 3.439463 1.897617 6.998196 -4.648331 14.012371 0.639403 0.858326 -6.644643 3.283161 -21.841040 10.348414 2.680753 -15.249759 14.381694 -17.624009 -6.926983 4.465759 -60.352311 -33.494319 28.824090 170.823636 -65.323508 -142.574348 -6.426304 -21.189312 -10.275393 18.006054 6.580186 -3.265748 30.892325 24.108217 -5.009765 -77.477674 48.379544 -58.245640 -1.819947 5.481348 1.274977 
4.913960 9.952362 91.115616 -131.397137 2.338263 83.831989 6.397066 4.122160 -4.222185 -5.161447 2.807994 24.663243 3.869515 12.632209 -27.174536 nan nan nan -11.114870 -10.012557 -10.294142 2.194999 -9.569283 11.478704 3.508381 -7.816929 -2.014538 nan nan nan -5.112570 3.356129 1.944816 6.946936 -4.654866 13.894367 0.548092 0.905222 -6.586408 3.285725 -21.899748 10.232471 2.647896 -15.213973 14.452365 -17.607613 -6.714217 4.521381 -60.600649 -33.712655 29.039134 170.944999 -65.346165 -142.743000 -6.442604 -21.008463 -10.085023 17.988714 6.493048 -3.028702 30.902589 24.326287 -5.076767 -77.212156 48.353456 -57.768788 -1.925938 5.319346 1.804538 
4.891908 9.911471 91.103592 -131.433542 2.319654 83.816679 6.357129 4.086903 -4.212636 -5.185033 2.870245 24.694520 3.760810 12.628313 -27.164647 nan nan nan -11.173196 -10.043874 -10.229522 2.233770 -9.497246 11.384270 3.515863 -7.775075 -2.012153 nan nan nan -5.083621 3.341653 1.905733 6.896941 -4.652832 13.916845 0.476840 0.921600 -6.572787 3.323189 -21.942972 10.122074 2.639444 -15.180027 14.458706 -17.614531 -6.588561 4.528603 -60.651924 -33.864559 29.182558 170.995366 -65.408311 -142.847204 -6.211384 -20.995732 -10.149292 18.018192 6.397463 -2.988288 30.955707 24.403719 -5.005000 -77.112381 48.390266 -57.609097 -2.169382 5.308197 1.968395 
4.873939 9.880293 91.099060 -131.495569 2.338822 83.777600 6.373934 4.119171 -4.199902 -5.193394 2.927812 24.752498 3.728038 12.639671 -27.208597 nan nan nan -11.142898 -10.001478 -10.180599 2.208936 -9.421373 11.332479 3.491484 -7.739785 -2.058493 nan nan nan -5.085451 3.373419 1.853545 6.899396 -4.641504 14.020069 0.466739 0.922488 -6.625542 3.319451 -21.971265 10.063490 2.616347 -15.201588 14.465639 -17.617437 -6.619664 4.530723 -60.641382 -33.919099 29.233579 170.936310 -65.474679 -142.803510 -6.037816 -21.097119 -10.289659 18.076643 6.404086 -3.061040 30.920461 24.375744 -4.917756 -77.003526 48.354401 -57.613860 -2.293378 5.383563 1.777933 
4.875556 9.842869 91.091232 -131.609006 2.380732 83.754523 6.400665 4.164474 -4.210554 -5.136430 3.047347 24.801716 3.719614 12.644126 -27.187201 nan nan nan -11.056263 -9.918602 -10.191044 2.140788 -9.411248 11.279568 3.485905 -7.698620 -2.032975 nan nan nan -5.053668 3.389162 1.889751 6.900756 -4.602541 14.028379 0.447715 0.926978 -6.708051 3.348109 -21.897488 10.020316 2.564560 -15.233522 14.469175 -17.575382 -6.574508 4.485750 -60.802990 -33.912870 29.388190 170.813913 -65.521383 -142.613933 -6.058498 -21.156730 -10.323187 18.107760 6.417119 -3.054773 30.948329 24.415444 -4.794213 -76.927076 48.240970 -57.569034 -2.272238 5.419060 1.593094 
4.865198 9.821259 91.085625 -131.706345 2.419630 83.715667 6.412578 4.171548 -4.161813 -5.094702 3.073111 24.805415 3.701685 12.653394 -27.178127 nan nan nan -10.993165 -9.902800 -10.113627 2.133019 -9.423128 11.126212 3.479909 -7.697490 -1.980694 nan nan nan -5.012643 3.395542 1.870597 6.884135 -4.590157 14.056516 0.431181 0.939316 -6.720269 3.311833 -21.849187 10.040466 2.546177 -15.254373 14.429463 -17.596268 -6.564212 4.441629 -60.903137 -33.906087 29.477924 170.741808 -65.548281 -142.537884 -6.187344 -21.112174 -10.234345 18.093157 6.451671 -3.049822 31.014372 24.416388 -4.701219 -76.860030 48.213369 -57.513040 -2.149378 5.388585 1.549713 
4.847114 9.797740 91.084892 -131.784047 2.463519 83.703515 6.435203 4.204056 -4.154085 -5.063914 3.110614 24.831470 3.667142 12.625540 -27.221031 nan nan nan -10.940303 -9.916170 -10.058660 2.153681 -9.475198 10.967688 3.479670 -7.676243 -1.921942 nan nan nan -4.978469 3.397958 1.822271 6.878288 -4.589641 14.051492 0.436668 0.953289 -6.724795 3.221609 -21.843423 10.169886 2.602086 -15.285004 14.240041 -17.652393 -6.583566 4.428956 -60.934858 -33.898215 29.517397 170.810607 -65.588016 -142.655559 -6.168521 -21.159954 -10.162354 18.036037 6.484760 -3.079946 31.120302 24.395553 -4.695210 -76.815239 48.210682 -57.604459 -2.167715 5.474530 1.391384 
